<?xml version="1.0" encoding="UTF-8"?>
<svg xmlns="http://www.w3.org/2000/svg" width="1080" height="1440" viewBox="0 0 1080 1440">
  <rect width="1080" height="1440" fill="#F7F3EA"/>
  <g transform="translate(68 52)"><g transform="scale(.78)"><g fill="#172554"><path d="M8 54.5V36.2C8 28.9 13.2 23 20.5 21.5v22.2c0 6.2-4.4 11.4-10.5 12.5A1.7 1.7 0 0 1 8 54.5Z"/><path d="M26 56.8V23.2C26 15.1 31.7 8.5 40 6.8v36.7c0 7.1-5 13.1-12.1 14.7A1.6 1.6 0 0 1 26 56.8Z"/><path d="M45 58V34.1c0-7.5 5.3-13.6 13-15.2v27c0 6.3-4.5 11.6-10.7 13A1.9 1.9 0 0 1 45 58Z"/></g><circle cx="51.5" cy="9.5" r="5.5" fill="#FF5B4D"/></g><text x="64" y="38" font-family="Microsoft YaHei, sans-serif" font-size="34" font-weight="800" fill="#17191C">晨笙做东西</text></g>
  <text x="1010" y="86" text-anchor="end" font-family="Microsoft YaHei, sans-serif" font-size="28" font-weight="700" fill="#315CFF">工具与工作流</text>
  <line x1="68" y1="142" x2="1012" y2="142" stroke="#CBD0D6" stroke-width="2"/>

  <text x="70" y="270" font-family="Microsoft YaHei, sans-serif" font-size="88" font-weight="900" fill="#17191C">高赞题材</text>
  <text x="70" y="380" font-family="Microsoft YaHei, sans-serif" font-size="102" font-weight="900" fill="#D64032">≠ 立刻转型</text>
  <text x="72" y="450" font-family="Microsoft YaHei, sans-serif" font-size="30" fill="#666B73">我自己的公开主页小样本｜2026-07-27</text>

  <g transform="translate(70 520)">
    <rect width="440" height="250" rx="36" fill="#172554"/>
    <text x="34" y="62" font-family="Microsoft YaHei, sans-serif" font-size="30" fill="#D7DCE5">粉丝</text>
    <text x="32" y="184" font-family="Arial, sans-serif" font-size="138" font-weight="900" fill="#F7F3EA">68</text>
    <rect x="470" width="540" height="250" rx="36" fill="#FFFFFF" stroke="#CBD0D6" stroke-width="3"/>
    <text x="504" y="62" font-family="Microsoft YaHei, sans-serif" font-size="30" fill="#666B73">获赞与收藏</text>
    <text x="502" y="184" font-family="Arial, sans-serif" font-size="124" font-weight="900" fill="#315CFF">1908</text>
  </g>

  <text x="72" y="850" font-family="Microsoft YaHei, sans-serif" font-size="34" font-weight="800" fill="#17191C">同期公开互动快照</text>
  <g transform="translate(70 900)">
    <rect width="225" height="176" rx="26" fill="#FFFFFF" stroke="#CBD0D6" stroke-width="2"/>
    <text x="24" y="52" font-family="Microsoft YaHei, sans-serif" font-size="26" fill="#666B73">财经样本</text>
    <text x="24" y="126" font-family="Arial, sans-serif" font-size="66" font-weight="900" fill="#D64032">1003</text>
    <text x="192" y="128" font-family="Microsoft YaHei, sans-serif" font-size="24" fill="#666B73">赞</text>
    <rect x="245" width="225" height="176" rx="26" fill="#FFFFFF" stroke="#CBD0D6" stroke-width="2"/>
    <text x="269" y="52" font-family="Microsoft YaHei, sans-serif" font-size="26" fill="#666B73">财经样本</text>
    <text x="269" y="126" font-family="Arial, sans-serif" font-size="66" font-weight="900" fill="#D64032">241</text>
    <text x="402" y="128" font-family="Microsoft YaHei, sans-serif" font-size="24" fill="#666B73">赞</text>
    <rect x="490" width="225" height="176" rx="26" fill="#FFFFFF" stroke="#CBD0D6" stroke-width="2"/>
    <text x="514" y="52" font-family="Microsoft YaHei, sans-serif" font-size="26" fill="#666B73">猫视频</text>
    <text x="514" y="126" font-family="Arial, sans-serif" font-size="66" font-weight="900" fill="#7A5CFA">59</text>
    <text x="610" y="128" font-family="Microsoft YaHei, sans-serif" font-size="24" fill="#666B73">赞</text>
    <rect x="735" width="275" height="176" rx="26" fill="#FFFFFF" stroke="#CBD0D6" stroke-width="2"/>
    <text x="759" y="52" font-family="Microsoft YaHei, sans-serif" font-size="26" fill="#666B73">数篇 AI 工具</text>
    <text x="759" y="124" font-family="Microsoft YaHei, sans-serif" font-size="54" font-weight="900" fill="#315CFF">个位数</text>
  </g>

  <rect x="70" y="1130" width="940" height="170" rx="30" fill="#17191C"/>
  <text x="104" y="1192" font-family="Microsoft YaHei, sans-serif" font-size="34" font-weight="800" fill="#F7F3EA">这说明：财经解释值得继续测</text>
  <text x="104" y="1250" font-family="Microsoft YaHei, sans-serif" font-size="34" font-weight="800" fill="#FFBEA8">不说明：必须转成纯财经号</text>

  <text x="70" y="1368" font-family="Microsoft YaHei, sans-serif" font-size="24" fill="#666B73">缺少曝光、进入率、主页访问和关注转化，不能归因。</text>
  <text x="1010" y="1368" text-anchor="end" font-family="Arial, sans-serif" font-size="24" fill="#8B9097">03 / 09</text>
</svg>
